<mxfile host="65bd71144e">
    <diagram id="GZ9-zj-AoK5jU_Pn7Wl0" name="Page-1">
        <mxGraphModel dx="611" dy="467" grid="1" gridSize="10" guides="1" tooltips="1" connect="1" arrows="1" fold="1" page="1" pageScale="1" pageWidth="850" pageHeight="1100" math="0" shadow="0">
            <root>
                <mxCell id="0"/>
                <mxCell id="1" parent="0"/>
                <mxCell id="2" value="" style="whiteSpace=wrap;html=1;" parent="1" vertex="1">
                    <mxGeometry x="250" y="30" width="560" height="290" as="geometry"/>
                </mxCell>
                <mxCell id="3" value="Y Library" style="whiteSpace=wrap;html=1;" parent="1" vertex="1">
                    <mxGeometry x="300" y="50" width="370" height="60" as="geometry"/>
                </mxCell>
                <mxCell id="4" value="d" style="whiteSpace=wrap;html=1;" parent="1" vertex="1">
                    <mxGeometry x="270" y="120" width="120" height="70" as="geometry"/>
                </mxCell>
                <mxCell id="5" value="add button" style="whiteSpace=wrap;html=1;" vertex="1" parent="1">
                    <mxGeometry x="710" y="120" width="80" height="30" as="geometry"/>
                </mxCell>
                <mxCell id="6" value="d" style="whiteSpace=wrap;html=1;" vertex="1" parent="1">
                    <mxGeometry x="410" y="120" width="120" height="70" as="geometry"/>
                </mxCell>
                <mxCell id="7" value="d" style="whiteSpace=wrap;html=1;" vertex="1" parent="1">
                    <mxGeometry x="270" y="220" width="120" height="70" as="geometry"/>
                </mxCell>
            </root>
        </mxGraphModel>
    </diagram>
</mxfile>